<svg width="113" height="113" viewBox="0 0 113 113" fill="none" xmlns="http://www.w3.org/2000/svg">
<path fill-rule="evenodd" clip-rule="evenodd" d="M56.5 0C25.2838 0 0 25.2838 0 56.5C0 81.5013 16.1731 102.618 38.6319 110.104C41.4569 110.599 42.5163 108.904 42.5163 107.421C42.5163 106.079 42.4456 101.629 42.4456 96.8975C28.25 99.5106 24.5775 93.4369 23.4475 90.2588C22.8119 88.6344 20.0575 83.62 17.6563 82.2781C15.6788 81.2188 12.8537 78.6056 17.5856 78.535C22.035 78.4644 25.2131 82.6313 26.2725 84.3263C31.3575 92.8719 39.4794 90.4706 42.7281 88.9875C43.2225 85.315 44.7056 82.8431 46.33 81.4306C33.7588 80.0181 20.6225 75.145 20.6225 53.5338C20.6225 47.3894 22.8119 42.3044 26.4138 38.3494C25.8488 36.9369 23.8713 31.1456 26.9788 23.3769C26.9788 23.3769 31.7106 21.8938 42.5163 29.1681C47.0363 27.8969 51.8388 27.2613 56.6413 27.2613C61.4438 27.2613 66.2463 27.8969 70.7663 29.1681C81.5719 21.8231 86.3038 23.3769 86.3038 23.3769C89.4113 31.1456 87.4338 36.9369 86.8688 38.3494C90.4706 42.3044 92.66 47.3188 92.66 53.5338C92.66 75.2156 79.4531 80.0181 66.8819 81.4306C68.93 83.1963 70.6956 86.5863 70.6956 91.8831C70.6956 99.44 70.625 105.514 70.625 107.421C70.625 108.904 71.6844 110.669 74.5094 110.104C85.7255 106.318 95.4717 99.1089 102.376 89.493C109.281 79.8771 112.997 68.3381 113 56.5C113 25.2838 87.7163 0 56.5 0Z" fill="#111111"/>
</svg>
